<svg width="100" height="100" viewBox="0 0 100 100" fill="none" xmlns="http://www.w3.org/2000/svg">
<g clip-path="url(#clip0_201_34)">
<path d="M3.65 82V74.62H21.2V39.88H5.9V32.5H29.3V74.62H45.95V82H3.65ZM24.35 23.59C22.37 23.59 20.81 23.08 19.67 22.06C18.53 21.04 17.96 19.66 17.96 17.92C17.96 16.12 18.53 14.71 19.67 13.69C20.81 12.61 22.37 12.07 24.35 12.07C26.33 12.07 27.89 12.61 29.03 13.69C30.17 14.71 30.74 16.12 30.74 17.92C30.74 19.66 30.17 21.04 29.03 22.06C27.89 23.08 26.33 23.59 24.35 23.59ZM76.9648 82.72C73.0048 82.72 69.5848 81.97 66.7048 80.47C63.8248 78.97 61.5748 76.81 59.9548 73.99C58.3948 71.11 57.6148 67.72 57.6148 63.82V50.68C57.6148 46.72 58.3948 43.33 59.9548 40.51C61.5748 37.69 63.8248 35.53 66.7048 34.03C69.5848 32.53 73.0048 31.78 76.9648 31.78C80.9248 31.78 84.3448 32.53 87.2248 34.03C90.1048 35.53 92.3248 37.69 93.8848 40.51C95.5048 43.33 96.3148 46.69 96.3148 50.59V63.82C96.3148 67.72 95.5048 71.11 93.8848 73.99C92.3248 76.81 90.1048 78.97 87.2248 80.47C84.3448 81.97 80.9248 82.72 76.9648 82.72ZM76.9648 75.52C80.5048 75.52 83.2648 74.53 85.2448 72.55C87.2248 70.57 88.2148 67.66 88.2148 63.82V50.68C88.2148 46.84 87.2248 43.93 85.2448 41.95C83.2648 39.97 80.5048 38.98 76.9648 38.98C73.4848 38.98 70.7248 39.97 68.6848 41.95C66.7048 43.93 65.7148 46.84 65.7148 50.68V63.82C65.7148 67.66 66.7048 70.57 68.6848 72.55C70.7248 74.53 73.4848 75.52 76.9648 75.52Z" fill="#F9CB10"/>
</g>
<defs>
<clipPath id="clip0_201_34">
<rect width="100" height="100" fill="white"/>
</clipPath>
</defs>
</svg>
